<svg width="261" height="80" viewBox="0 0 261 80" fill="none" xmlns="http://www.w3.org/2000/svg">
<path d="M0.6875 79V6.27273H20.4318V63.0909H49.8352V79H0.6875Z" fill="#09BBAA"/>
<path d="M59.1005 79V24.4545H78.7028V79H59.1005ZM68.9016 18.7727C66.2501 18.7727 63.9774 17.8968 62.0835 16.1449C60.1895 14.393 59.2425 12.286 59.2425 9.82386C59.2425 7.36174 60.1895 5.25473 62.0835 3.50284C63.9774 1.75095 66.2501 0.875 68.9016 0.875C71.5768 0.875 73.8496 1.75095 75.7198 3.50284C77.6138 5.25473 78.5607 7.36174 78.5607 9.82386C78.5607 12.286 77.6138 14.393 75.7198 16.1449C73.8496 17.8968 71.5768 18.7727 68.9016 18.7727ZM144.662 24.4545L126.338 79H103.611L85.2869 24.4545H105.884L114.69 60.5341H115.259L124.065 24.4545H144.662ZM201.095 42.2102H183.055C182.961 41.0975 182.57 40.1387 181.884 39.3338C181.197 38.5289 180.309 37.9134 179.22 37.4872C178.155 37.0374 176.971 36.8125 175.669 36.8125C173.988 36.8125 172.544 37.1203 171.337 37.7358C170.129 38.3513 169.537 39.2273 169.561 40.3636C169.537 41.1686 169.881 41.9143 170.591 42.6009C171.325 43.2874 172.733 43.8201 174.817 44.1989L185.896 46.1875C191.483 47.2055 195.638 48.9219 198.361 51.3366C201.107 53.7277 202.492 56.9356 202.516 60.9602C202.492 64.8428 201.332 68.2164 199.036 71.081C196.763 73.9219 193.65 76.1236 189.696 77.6861C185.766 79.2249 181.28 79.9943 176.237 79.9943C167.904 79.9943 161.382 78.2898 156.67 74.8807C151.983 71.4716 149.367 66.9735 148.822 61.3864H168.283C168.543 63.1146 169.395 64.4522 170.839 65.3991C172.307 66.3224 174.154 66.7841 176.379 66.7841C178.179 66.7841 179.658 66.4763 180.818 65.8608C182.002 65.2453 182.606 64.3693 182.629 63.233C182.606 62.1913 182.085 61.3627 181.067 60.7472C180.072 60.1316 178.51 59.6345 176.379 59.2557L166.72 57.5511C161.157 56.5805 156.99 54.7339 154.22 52.0114C151.45 49.2888 150.077 45.785 150.101 41.5C150.077 37.7121 151.071 34.5043 153.084 31.8764C155.12 29.2249 158.02 27.2126 161.784 25.8395C165.572 24.4427 170.058 23.7443 175.243 23.7443C183.126 23.7443 189.341 25.3778 193.886 28.6449C198.455 31.9119 200.858 36.4337 201.095 42.2102ZM226.225 79.8523C222.745 79.8523 219.667 79.2841 216.992 78.1477C214.341 76.9877 212.257 75.2358 210.742 72.892C209.227 70.5483 208.469 67.5653 208.469 63.9432C208.469 60.9602 208.978 58.4152 209.996 56.3082C211.014 54.1776 212.435 52.4375 214.258 51.0881C216.081 49.7386 218.2 48.7088 220.614 47.9986C223.053 47.2884 225.681 46.8267 228.498 46.6136C231.552 46.3769 234.002 46.0928 235.849 45.7614C237.719 45.4062 239.068 44.9209 239.897 44.3054C240.726 43.6662 241.14 42.8258 241.14 41.7841V41.642C241.14 40.2216 240.595 39.1326 239.506 38.375C238.417 37.6174 237.021 37.2386 235.316 37.2386C233.446 37.2386 231.919 37.6529 230.735 38.4815C229.575 39.2865 228.877 40.5294 228.64 42.2102H210.6C210.837 38.8958 211.89 35.8419 213.761 33.0483C215.655 30.2311 218.413 27.982 222.035 26.3011C225.657 24.5966 230.179 23.7443 235.6 23.7443C239.506 23.7443 243.01 24.206 246.112 25.1293C249.213 26.0289 251.853 27.2955 254.031 28.929C256.209 30.5388 257.866 32.4328 259.002 34.6108C260.162 36.7652 260.742 39.1089 260.742 41.642V79H242.418V71.3295H241.992C240.903 73.3655 239.577 75.0109 238.015 76.2656C236.476 77.5204 234.712 78.4318 232.724 79C230.759 79.5682 228.593 79.8523 226.225 79.8523ZM232.617 67.4943C234.109 67.4943 235.505 67.1866 236.808 66.571C238.133 65.9555 239.21 65.0677 240.039 63.9077C240.868 62.7476 241.282 61.339 241.282 59.6818V55.1364C240.761 55.3494 240.205 55.5507 239.613 55.7401C239.045 55.9295 238.429 56.107 237.766 56.2727C237.127 56.4384 236.441 56.5923 235.707 56.7344C234.996 56.8764 234.251 57.0066 233.469 57.125C231.954 57.3617 230.711 57.7524 229.741 58.2969C228.794 58.8177 228.084 59.4688 227.61 60.25C227.16 61.0076 226.935 61.8598 226.935 62.8068C226.935 64.322 227.468 65.482 228.533 66.2869C229.599 67.0919 230.96 67.4943 232.617 67.4943Z" fill="black"/>
</svg>
